<svg version="1.1" xmlns="http://www.w3.org/2000/svg" xmlns:xlink="http://www.w3.org/1999/xlink" width="800px" height="800px" viewBox="0,0,256,256"><g fill="#000000" fill-rule="evenodd" stroke="none" stroke-width="1" stroke-linecap="butt" stroke-linejoin="miter" stroke-miterlimit="10" stroke-dasharray="" stroke-dashoffset="0" font-family="none" font-weight="none" font-size="none" text-anchor="none" style="mix-blend-mode: normal"><g transform="scale(5.33333,5.33333)"><g id="Icons"><g transform="translate(-200,-160)" id="Color-"><path d="M225.63836,208h-22.98912c-1.46356,0 -2.64923,-1.18641 -2.64923,-2.6494v-42.70139c0,-1.46336 1.18586,-2.64921 2.64923,-2.64921h42.70172c1.463,0 2.64905,1.18585 2.64905,2.64921v42.70139c0,1.46318 -1.18623,2.6494 -2.64905,2.6494h-12.23165v-18.58824h6.23922l0.93423,-7.24417h-7.17345v-4.62494c0,-2.09735 0.58241,-3.52663 3.58999,-3.52663l3.83602,-0.00168v-6.47924c-0.66342,-0.08828 -2.94053,-0.28552 -5.58976,-0.28552c-5.53072,0 -9.3172,3.37596 -9.3172,9.57564v5.34238h-6.25523v7.24417h6.25523v18.58825z" id="Facebook"></path></g></g></g></g></svg>