<svg version="1.1" xmlns="http://www.w3.org/2000/svg" xmlns:xlink="http://www.w3.org/1999/xlink" width="800px" height="800px" viewBox="0,0,256,256"><g fill="#26877f" fill-rule="nonzero" stroke="none" stroke-width="1" stroke-linecap="butt" stroke-linejoin="miter" stroke-miterlimit="10" stroke-dasharray="" stroke-dashoffset="0" font-family="none" font-weight="none" font-size="none" text-anchor="none" style="mix-blend-mode: normal"><g transform="translate(-0.016,0.00747) scale(10.66667,10.66667)"><path d="M21.3005,21.9986c-0.18,0 -0.36,-0.07 -0.49,-0.2l-1.86,-1.86c-0.27,-0.27 -0.27,-0.71 0,-0.99c0.27,-0.27 0.71,-0.27 0.99,0l1.86,1.86c0.27,0.27 0.27,0.71 0,0.99c-0.14,0.13 -0.32,0.2 -0.5,0.2z"></path><path d="M11.5,2c-5.24,0 -9.5,4.26 -9.5,9.5c0,5.24 4.26,9.5 9.5,9.5c5.24,0 9.5,-4.26 9.5,-9.5c0,-5.24 -4.26,-9.5 -9.5,-9.5zM14.68,12.06c-0.56,1.78 -2.51,2.75 -3.18,2.75c-0.69,0 -2.6,-0.93 -3.18,-2.75c-0.38,-1.19 0.05,-2.74 1.41,-3.17c0.62,-0.2 1.28,-0.08 1.77,0.29c0.48,-0.37 1.15,-0.49 1.78,-0.29c1.35,0.44 1.78,1.99 1.4,3.17z"></path></g></g></svg>